Coordinates
version=1
nRows=21
nColumns=22
inDegrees=yes

Units are S.I. units (second, meters, Newtons, ...)
If the header above contains a line with 'inDegrees', this indicates whether rotational values are in degrees (yes) or radians (no).

endheader
time	pelvis_tilt	pelvis_list	pelvis_rotation	pelvis_tx	pelvis_ty	pelvis_tz	hip_flexion_r	hip_adduction_r	hip_rotation_r	knee_angle_r	ankle_angle_r	subtalar_angle_r	hip_flexion_l	hip_adduction_l	hip_rotation_l	knee_angle_l	ankle_angle_l	subtalar_angle_l	lumbar_extension	lumbar_bending	lumbar_rotation
      0.01000000	     -2.85165127	     -4.08433307	     -2.33649794	     -1.54031677	      1.01343457	     -0.10073763	      2.90107163	      1.18441327	     -7.22336476	    -11.71844731	      8.08154535	      1.69007093	     -0.15988530	     -6.84677020	    -13.99930704	     -7.83220077	     10.11687915	     -1.06666815	     -3.14146004	      0.85863574	     -3.73982236
      0.02000000	     -2.85028294	     -4.08715220	     -2.34799769	     -1.54024900	      1.01342308	     -0.10078800	      2.89524312	      1.18290703	     -7.22674443	    -11.71584444	      8.08212927	      1.69265173	     -0.16555366	     -6.84623703	    -13.99970607	     -7.83848029	     10.11724900	     -1.06630979	     -3.13349373	      0.86091707	     -3.73831726
      0.03000000	     -2.83619291	     -4.10035204	     -2.37520952	     -1.54014452	      1.01342800	     -0.10080148	      2.86682834	      1.19382315	     -7.22562282	    -11.69811007	      8.08206867	      1.73191493	     -0.19407057	     -6.85806280	    -14.05417971	     -7.83692087	     10.14156409	     -1.06180716	     -3.13613181	      0.86683442	     -3.69437048
      0.04000000	     -2.83573627	     -4.10286191	     -2.38976711	     -1.54008892	      1.01341714	     -0.10084637	      2.86297466	      1.19217716	     -7.22929662	    -11.69469665	      8.08293059	      1.73300964	     -0.19822017	     -6.85706320	    -14.05209128	     -7.84378253	     10.14169556	     -1.06141786	     -3.13088499	      0.86625915	     -3.69263013
      0.05000000	     -2.83455368	     -4.10518805	     -2.40420486	     -1.54001163	      1.01340469	     -0.10087421	      2.85080152	      1.19140446	     -7.24150595	    -11.67894735	      8.08709741	      1.73756200	     -0.20360331	     -6.85746692	    -14.06169380	     -7.85157906	     10.15046675	     -1.06073822	     -3.12172152	      0.85788687	     -3.66318989
      0.06000000	     -2.83203811	     -4.10897496	     -2.41109885	     -1.53993649	      1.01339459	     -0.10089896	      2.84536144	      1.19273786	     -7.24256765	    -11.68206354	      8.08710387	      1.73822283	     -0.20988524	     -6.85966463	    -14.06265180	     -7.85736901	     10.15196798	     -1.06072743	     -3.11205915	      0.85067710	     -3.66278813
      0.07000000	     -2.82908190	     -4.11287566	     -2.41870144	     -1.53986195	      1.01338509	     -0.10091150	      2.83934668	      1.19496776	     -7.24453606	    -11.68405840	      8.08769430	      1.73877180	     -0.21645145	     -6.86244541	    -14.06429142	     -7.86361676	     10.15452906	     -1.06088871	     -3.10186423	      0.84126789	     -3.66074796
      0.08000000	     -2.81997911	     -4.11450664	     -2.43784502	     -1.53976894	      1.01338172	     -0.10089597	      2.82011413	      1.19610094	     -7.24869215	    -11.67213161	      8.09917042	      1.74123097	     -0.23151868	     -6.86398741	    -14.09657725	     -7.87282913	     10.18477490	     -1.06221967	     -3.09619078	      0.82421759	     -3.62496676
      0.09000000	     -2.81487142	     -4.11906365	     -2.44150099	     -1.53968963	      1.01337633	     -0.10090402	      2.81372862	      1.19938973	     -7.24605484	    -11.67975691	      8.09896056	      1.74150761	     -0.24007415	     -6.86784122	    -14.09741801	     -7.87882012	     10.18573041	     -1.06219276	     -3.08365850	      0.81418310	     -3.62749611
      0.10000000	     -2.80958207	     -4.12364255	     -2.44671124	     -1.53961386	      1.01337384	     -0.10089675	      2.80711544	      1.20380692	     -7.24340712	    -11.68611762	      8.09953120	      1.74172140	     -0.24919950	     -6.87269028	    -14.09878763	     -7.88415720	     10.18776731	     -1.06234002	     -3.07157466	      0.80191588	     -3.62999074
      0.11000000	     -2.80373849	     -4.12841385	     -2.45144410	     -1.53953599	      1.01337214	     -0.10088860	      2.79951846	      1.20844487	     -7.23971684	    -11.69240543	      8.10064263	      1.74187925	     -0.25941561	     -6.87761258	    -14.10083119	     -7.88896426	     10.19064009	     -1.06262007	     -3.05855519	      0.78924621	     -3.63244260
      0.12000000	     -2.75813968	     -4.13583386	     -2.49071712	     -1.53943639	      1.01342396	     -0.10081921	      2.74077336	      1.21973714	     -7.16246623	    -11.68221998	      8.13015836	      1.74522447	     -0.32915718	     -6.88354343	    -14.16519763	     -7.87895429	     10.23593664	     -1.06042106	     -3.09195311	      0.77612333	     -3.59579245
      0.13000000	     -2.75251231	     -4.14065425	     -2.49105721	     -1.53935470	      1.01342447	     -0.10081876	      2.73323143	      1.22407719	     -7.16004392	    -11.69003841	      8.12848147	      1.74577494	     -0.33900342	     -6.88838726	    -14.16559800	     -7.88289808	     10.23508395	     -1.06016429	     -3.07629509	      0.76432957	     -3.59997919
      0.14000000	     -2.74675915	     -4.14556160	     -2.49216338	     -1.53927339	      1.01342725	     -0.10081309	      2.72488810	      1.22890474	     -7.15538868	    -11.69664366	      8.12743726	      1.74640546	     -0.35008300	     -6.89359790	    -14.16664578	     -7.88534741	     10.23522909	     -1.06001280	     -3.06065852	      0.75190282	     -3.60631948
      0.15000000	     -2.70502213	     -4.15670343	     -2.50852508	     -1.53915516	      1.01348978	     -0.10078095	      2.65177850	      1.24491120	     -7.08179955	    -11.65599239	      8.12431535	      1.76153103	     -0.42317052	     -6.89998207	    -14.18968834	     -7.85301078	     10.23759554	     -1.05108653	     -3.08460663	      0.74597475	     -3.60931236
      0.16000000	     -2.70011928	     -4.16122786	     -2.51046793	     -1.53909360	      1.01349229	     -0.10078151	      2.64519919	      1.24877442	     -7.08075053	    -11.66245229	      8.12310525	      1.76210195	     -0.43205864	     -6.90439456	    -14.19071115	     -7.85612496	     10.23793498	     -1.05112281	     -3.07057886	      0.73509646	     -3.61441728
      0.17000000	     -2.69567805	     -4.16582648	     -2.51701814	     -1.53902396	      1.01349591	     -0.10077461	      2.62798755	      1.25427088	     -7.06841408	    -11.64705456	      8.12177302	      1.76560540	     -0.45151569	     -6.90703021	    -14.20756495	     -7.83847886	     10.24555213	     -1.05111618	     -3.05529887	      0.72597572	     -3.63870040
      0.18000000	     -2.69074920	     -4.17034004	     -2.52749393	     -1.53897075	      1.01350215	     -0.10076253	      2.60396942	      1.26073769	     -7.05829737	    -11.61599925	      8.11937367	      1.77020528	     -0.46601155	     -6.91058058	    -14.21792882	     -7.83287965	     10.24927852	     -1.05078705	     -3.04296131	      0.71564613	     -3.63956534
      0.19000000	     -2.68835227	     -4.17429798	     -2.53784500	     -1.53896481	      1.01350199	     -0.10075070	      2.59945677	      1.26462596	     -7.05917291	    -11.61371880	      8.11851693	      1.77088493	     -0.47101932	     -6.91480648	    -14.21795892	     -7.83519361	     10.24953494	     -1.05089840	     -3.03522157	      0.70534425	     -3.64360478
      0.20000000	     -2.69212017	     -4.17727095	     -2.55284962	     -1.53891853	      1.01349499	     -0.10073907	      2.57853788	      1.26954628	     -7.05734823	    -11.56822264	      8.11394946	      1.77428387	     -0.47925266	     -6.91603188	    -14.23849200	     -7.82273163	     10.25510215	     -1.05205455	     -3.01285126	      0.69645379	     -3.64528587
      0.21000000	     -2.69305614	     -4.18161971	     -2.57042449	     -1.53890486	      1.01349397	     -0.10071476	      2.56396295	      1.27601139	     -7.05290119	    -11.53711653	      8.10449141	      1.77757779	     -0.48564062	     -6.92033077	    -14.25481835	     -7.81862344	     10.25740505	     -1.05303249	     -2.99990569	      0.68719140	     -3.64392179
